<svg xmlns="http://www.w3.org/2000/svg" fill="none" viewBox="0 0 1508 378" class="Footer_raycastTextBig__K_ZT9"><mask id="raycast-big_svg__c" fill="#fff"><path fill-rule="evenodd" d="M171.187 174.246a101 101 0 0 1-21.538 8.459l77.616 111.256h-58.741l-75.58-108.985H53.157V294H.72V.294h121.673q42.92-.117 69.706 25.141 26.786 25.26 26.786 67.2a102.5 102.5 0 0 1-6.932 38.534 72.04 72.04 0 0 1-18.523 27.413 120.8 120.8 0 0 1-22.243 15.664M53.157 46.504v92.028h65.398a49.2 49.2 0 0 0 34.736-12.023c8.732-8.106 13.079-19.463 13.079-33.991 0-14.529-4.386-25.729-13.001-33.913-8.615-8.185-20.364-12.101-35.245-12.101zM1467.3 293.449c-19.78 0-35.25-5.365-46.29-16.134s-16.57-25.729-16.57-44.683V115.15h-35.48V71.172h35.68l6.34-58.74h41.79v58.74h54.51v44.056h-54.51v111.06a23.15 23.15 0 0 0 6.26 16.33 21.7 21.7 0 0 0 7.58 5.22 21.66 21.66 0 0 0 9.07 1.594h31.6v44.017zm-213.4 4.151c-26.37 0-47.58-6.292-63.64-18.876a84.44 84.44 0 0 1-30.82-50.125h52.44a31.64 31.64 0 0 0 14.25 18.17 51.6 51.6 0 0 0 27.77 6.853c27.96 0 42.02-7.832 42.02-22.948q0-11.318-13.2-17.27a148 148 0 0 0-31.88-9.516 379 379 0 0 1-37.63-9.203 65.3 65.3 0 0 1-32.15-21.421c-8.74-10.456-13.16-24.162-13.16-41.158a58 58 0 0 1 5.64-25.872 58.16 58.16 0 0 1 16.52-20.69q22.245-18.561 61.68-18.523c26.28 0 47 5.874 62.66 17.583a78.86 78.86 0 0 1 29.72 47.502h-52.51q-8.385-20.99-39.75-20.99c-22.44 0-33.6 7.01-33.6 21.069a18 18 0 0 0 9.44 15.664 62.1 62.1 0 0 0 23.49 8.42 267 267 0 0 1 30.86 7.127 248 248 0 0 1 30.82 11.043 55.07 55.07 0 0 1 23.77 20.677 63.13 63.13 0 0 1 9.52 35.597 58.7 58.7 0 0 1-5.9 27.007 58.8 58.8 0 0 1-17.6 21.318q-23.46 18.523-68.76 18.562M1029.66 67.41c29.06 0 51.74 7.285 67.87 21.813q24.285 21.891 24.24 60.073v144.895h-41.98l-3.92-27.413h-2.03a60.7 60.7 0 0 1-24.6 21.93 83.66 83.66 0 0 1-40.57 9.438q-34.144 0-54.822-19.58a65.17 65.17 0 0 1-20.677-49.774 63.4 63.4 0 0 1 5.558-27.201 63.4 63.4 0 0 1 16.647-22.22q22.203-19.58 61.564-19.58h56.51v-10.652a37.2 37.2 0 0 0-2.6-15.959 37.1 37.1 0 0 0-9.15-13.333 47 47 0 0 0-32.23-10.456 43.7 43.7 0 0 0-26.24 7.402 35.47 35.47 0 0 0-13.706 17.818h-49.578a87.76 87.76 0 0 1 31.329-48.442c15.69-12.505 35.155-18.758 58.385-18.758m40.61 159.811a44.9 44.9 0 0 0 3.41-19.262v-10.574h-54.51c-25.104 0-37.909 9.712-37.909 29.293a26.47 26.47 0 0 0 9.79 21.186c6.462 5.521 15.859 8.341 28.119 8.341 16.84-.026 30.11-4.36 39.82-13.001a44.9 44.9 0 0 0 11.28-15.983m-262.989 70.847q-47.698 0-76.285-30.624c-18.993-20.403-28.587-48.638-28.587-84.744s9.516-64.223 28.469-84.665 44.448-30.624 76.403-30.624q38.926 0 64.537 20.794a98.33 98.33 0 0 1 33.991 52.554H857.72a53.96 53.96 0 0 0-50.439-29.292 50.9 50.9 0 0 0-22.755 4.486 50.9 50.9 0 0 0-18.403 14.115q-15.664 18.68-15.664 52.632t15.664 52.671a50.9 50.9 0 0 0 41.158 18.68 54.08 54.08 0 0 0 50.439-29.371h48.089a98.53 98.53 0 0 1-33.991 52.632q-25.533 20.756-64.537 20.756m-250.123-4.11-33.561 83.961h50.322L695.67 71.682h-52.437L582.299 228.99h-1.997L519.446 71.682H467.01zM421.704 89.223q-24.24-21.812-67.905-21.812-34.814 0-58.388 18.758a87.37 87.37 0 0 0-31.094 48.442h49.538a35.48 35.48 0 0 1 13.707-17.818 43.9 43.9 0 0 1 26.237-7.402c13.628 0 24.398 3.486 32.23 10.456a36.9 36.9 0 0 1 9.165 13.326 36.9 36.9 0 0 1 2.583 15.966v10.652h-56.783q-39.161 0-61.522 19.58a63.289 63.289 0 0 0-22.243 49.421 65.17 65.17 0 0 0 20.677 49.578q20.676 19.58 54.825 19.58a83.5 83.5 0 0 0 40.531-9.437 60.63 60.63 0 0 0 24.632-21.93h1.998l4.151 27.412h41.902V149.1q0-37.986-24.241-59.877M397.777 207.96a44.87 44.87 0 0 1-14.685 35.245q-14.568 12.962-39.866 13.001c-12.218 0-21.656-2.82-28.117-8.341a26.59 26.59 0 0 1-9.791-21.186q.236-29.253 37.908-29.293h54.551z" clip-rule="evenodd"></path></mask><g filter="url(#raycast-big_svg__a)"><path fill="#08090B" fill-opacity="0.1" fill-rule="evenodd" d="M171.187 174.246a101 101 0 0 1-21.538 8.459l77.616 111.256h-58.741l-75.58-108.985H53.157V294H.72V.294h121.673q42.92-.117 69.706 25.141 26.786 25.26 26.786 67.2a102.5 102.5 0 0 1-6.932 38.534 72.04 72.04 0 0 1-18.523 27.413 120.8 120.8 0 0 1-22.243 15.664M53.157 46.504v92.028h65.398a49.2 49.2 0 0 0 34.736-12.023c8.732-8.106 13.079-19.463 13.079-33.991 0-14.529-4.386-25.729-13.001-33.913-8.615-8.185-20.364-12.101-35.245-12.101zM1467.3 293.449c-19.78 0-35.25-5.365-46.29-16.134s-16.57-25.729-16.57-44.683V115.15h-35.48V71.172h35.68l6.34-58.74h41.79v58.74h54.51v44.056h-54.51v111.06a23.15 23.15 0 0 0 6.26 16.33 21.7 21.7 0 0 0 7.58 5.22 21.66 21.66 0 0 0 9.07 1.594h31.6v44.017zm-213.4 4.151c-26.37 0-47.58-6.292-63.64-18.876a84.44 84.44 0 0 1-30.82-50.125h52.44a31.64 31.64 0 0 0 14.25 18.17 51.6 51.6 0 0 0 27.77 6.853c27.96 0 42.02-7.832 42.02-22.948q0-11.318-13.2-17.27a148 148 0 0 0-31.88-9.516 379 379 0 0 1-37.63-9.203 65.3 65.3 0 0 1-32.15-21.421c-8.74-10.456-13.16-24.162-13.16-41.158a58 58 0 0 1 5.64-25.872 58.16 58.16 0 0 1 16.52-20.69q22.245-18.561 61.68-18.523c26.28 0 47 5.874 62.66 17.583a78.86 78.86 0 0 1 29.72 47.502h-52.51q-8.385-20.99-39.75-20.99c-22.44 0-33.6 7.01-33.6 21.069a18 18 0 0 0 9.44 15.664 62.1 62.1 0 0 0 23.49 8.42 267 267 0 0 1 30.86 7.127 248 248 0 0 1 30.82 11.043 55.07 55.07 0 0 1 23.77 20.677 63.13 63.13 0 0 1 9.52 35.597 58.7 58.7 0 0 1-5.9 27.007 58.8 58.8 0 0 1-17.6 21.318q-23.46 18.523-68.76 18.562M1029.66 67.41c29.06 0 51.74 7.285 67.87 21.813q24.285 21.891 24.24 60.073v144.895h-41.98l-3.92-27.413h-2.03a60.7 60.7 0 0 1-24.6 21.93 83.66 83.66 0 0 1-40.57 9.438q-34.144 0-54.822-19.58a65.17 65.17 0 0 1-20.677-49.774 63.4 63.4 0 0 1 5.558-27.201 63.4 63.4 0 0 1 16.647-22.22q22.203-19.58 61.564-19.58h56.51v-10.652a37.2 37.2 0 0 0-2.6-15.959 37.1 37.1 0 0 0-9.15-13.333 47 47 0 0 0-32.23-10.456 43.7 43.7 0 0 0-26.24 7.402 35.47 35.47 0 0 0-13.706 17.818h-49.578a87.76 87.76 0 0 1 31.329-48.442c15.69-12.505 35.155-18.758 58.385-18.758m40.61 159.811a44.9 44.9 0 0 0 3.41-19.262v-10.574h-54.51c-25.104 0-37.909 9.712-37.909 29.293a26.47 26.47 0 0 0 9.79 21.186c6.462 5.521 15.859 8.341 28.119 8.341 16.84-.026 30.11-4.36 39.82-13.001a44.9 44.9 0 0 0 11.28-15.983m-262.989 70.847q-47.698 0-76.285-30.624c-18.993-20.403-28.587-48.638-28.587-84.744s9.516-64.223 28.469-84.665 44.448-30.624 76.403-30.624q38.926 0 64.537 20.794a98.33 98.33 0 0 1 33.991 52.554H857.72a53.96 53.96 0 0 0-50.439-29.292 50.9 50.9 0 0 0-22.755 4.486 50.9 50.9 0 0 0-18.403 14.115q-15.664 18.68-15.664 52.632t15.664 52.671a50.9 50.9 0 0 0 41.158 18.68 54.08 54.08 0 0 0 50.439-29.371h48.089a98.53 98.53 0 0 1-33.991 52.632q-25.533 20.756-64.537 20.756m-250.123-4.11-33.561 83.961h50.322L695.67 71.682h-52.437L582.299 228.99h-1.997L519.446 71.682H467.01zM421.704 89.223q-24.24-21.812-67.905-21.812-34.814 0-58.388 18.758a87.37 87.37 0 0 0-31.094 48.442h49.538a35.48 35.48 0 0 1 13.707-17.818 43.9 43.9 0 0 1 26.237-7.402c13.628 0 24.398 3.486 32.23 10.456a36.9 36.9 0 0 1 9.165 13.326 36.9 36.9 0 0 1 2.583 15.966v10.652h-56.783q-39.161 0-61.522 19.58a63.289 63.289 0 0 0-22.243 49.421 65.17 65.17 0 0 0 20.677 49.578q20.676 19.58 54.825 19.58a83.5 83.5 0 0 0 40.531-9.437 60.63 60.63 0 0 0 24.632-21.93h1.998l4.151 27.412h41.902V149.1q0-37.986-24.241-59.877M397.777 207.96a44.87 44.87 0 0 1-14.685 35.245q-14.568 12.962-39.866 13.001c-12.218 0-21.656-2.82-28.117-8.341a26.59 26.59 0 0 1-9.791-21.186q.236-29.253 37.908-29.293h54.551z" clip-rule="evenodd" style="fill:color(display-p3 .0314 .0353 .0431);fill-opacity:0.1"></path></g><path fill="url(#raycast-big_svg__b)" fill-opacity="0.1" d="m149.649 182.705-.257-.967-1.381.367.818 1.172zm21.538-8.459.47.883.01-.005zm56.078 119.715v1h1.917l-1.097-1.572zm-58.741 0-.822.57.299.43h.523zm-75.58-108.985.822-.57-.299-.43h-.523zm-39.787 0v-1h-1v1zm0 109.024v1h1v-1zM.72 294h-1v1h1zM.72.294v-1h-1v1zm121.673 0v1h.002zm69.706 25.141-.686.728zm26.786 67.2h-1v.014zm-6.932 38.534-.932-.361-.003.007zm-18.523 27.413.665.747.007-.006.006-.006zm-140.273-20.05h-1v1h1zm0-92.028v-1h-1v1zm65.398 92.028.05-.999-.025-.001h-.025zm34.736-12.023.656.755.012-.011.012-.011zm.078-67.904-.689.725zM1404.44 115.15h1v-1h-1zm-35.48 0h-1v1h1zm0-43.978v-1h-1v1zm35.68 0v1h.9l.09-.892zm6.34-58.74v-1h-.89l-.1.892zm41.79 0h1v-1h-1zm0 58.74h-1v1h1zm54.51 0h1v-1h-1zm0 44.056v1h1v-1zm-54.51 0v-1h-1v1zm0 111.06 1 .021v-.021zm6.26 16.33.73-.684zm7.58 5.22.38-.925zm9.07 1.594v-1h-.02l-.02.001zm31.6 0h1v-1h-1zm0 44.017v1h1v-1zm-317.02-14.725.62-.787zm63.64 18.876v1zm-94.46-69.001v-1h-1.22l.24 1.194zm52.44 0 .95-.288-.21-.712h-.74zm14.25 18.17-.51.862.01.005zm27.77 6.853v-1h-.02l-.02.001zm28.82-40.218.41-.911-.01-.005-.01-.004zm-31.88-9.516-.19.982.02.002zm-37.63-9.203.28-.958v-.001zm-32.15-21.421.77-.631-.01-.01zm-13.16-41.158h1v-.015zm5.64-25.872.9.43zm16.52-20.69.62.786.01-.009.01-.009zm61.68-18.523v1zm62.66 17.583.6-.797v-.004zm29.72 47.502v1h1.22l-.24-1.194zm-52.51 0-.93.371.25.629h.68zm-73.35.079h-1v.01zm2.58 9.119.86-.516zm6.86 6.545.52-.854-.02-.013-.03-.012zm23.49 8.42.17-.986-.01-.003-.01-.001zm30.86 7.127-.28.959.01.002zm30.82 11.043.42-.91-.01-.004-.01-.003zm23.77 20.677.85-.529v-.006zm9.52 35.597-1-.035v.058zm-5.9 27.007.9.437zm-17.6 21.318-.6-.801-.01.008-.01.008zM1097.53 89.223l.67-.742zm24.24 60.073-1-.001v.001zm0 144.895v1h1v-1zm-41.98 0-.99.141.12.859h.87zm-3.92-27.413.99-.141-.12-.859h-.87zm-2.03 0v-1h-.55l-.3.463zm-24.6 21.93-.43-.899-.02.006-.01.006zm-40.57 9.438.03-1h-.03zm-54.822-19.58.688-.726-.005-.005zm-15.725-22.649.923-.384zm-4.952-27.125 1 .033.001-.026-.001-.026zm5.558-27.201-.913-.41zm16.647-22.22.649.761.006-.005.006-.005zm118.074-19.58v1h1v-1zm0-10.652-1-.058v.058zm-2.6-15.959-.93.372zm-9.15-13.333.68-.732-.03-.023-.02-.021zm-32.23-10.456-.04.999.04.002.05-.002zm-26.24 7.402-.56-.83zm-13.706 17.818v1h.712l.233-.673zm-49.578 0-.971-.237-.302 1.237h1.273zm31.329-48.442.615.789.008-.007zm102.405 121.79h-1v.044zm-3.41 19.262.93.384zm3.41-29.836h1v-1h-1zm-92.419 29.293 1 .023v-.023zm2.434 11.73-.907.419zm7.356 9.456.65-.761-.01-.008-.01-.008zm28.119 8.341v1zm39.82-13.001.67.747.01-.007zm-327.994 24.24-.732.681.001.001zm-.118-169.41.734.68zm140.94-9.829-.63.777.007.005zm33.991 52.554v1h1.288l-.319-1.248zm-48.089 0-.89.456.279.544h.611zm-50.439-29.292-.035.999.04.001.04-.001zm-22.755 4.486-.412-.911zm-18.403 14.115.766.643.007-.009zm0 105.303.775-.632-.008-.009zm18.392 14.158-.413.911zm22.766 4.522.043-.999-.038-.002-.039.002zm29.522-7.297.503.865zm20.917-22.074v-1h-.611l-.279.544zm48.089 0 .969.248.319-1.248h-1.288zm-33.991 52.632-.624-.781-.007.006zM523.597 377.919l-.928-.372-.548 1.372h1.476zm33.561-83.961.929.371.149-.374-.151-.373zm16.761 83.961v1h.679l.25-.631zM695.67 71.682l.929.369.545-1.37h-1.474zm-52.437 0v-1h-.685l-.247.638zM582.299 228.99v1h.685l.248-.639zm-1.997 0-.932.361.247.639h.685zM519.446 71.682l.933-.361-.247-.64h-.686zm-52.436 0v-1h-1.485l.558 1.375zm-45.306 17.541.67-.742h-.001zM295.411 86.17l.616.787.006-.005zm-31.094 48.442-.972-.233-.296 1.233h1.268zm49.538 0v1h.712l.233-.673zm13.707-17.818-.557-.831-.002.001zm26.237-7.402-.04.999.02.001h.02zm32.23 10.456.679-.733-.007-.007-.007-.007zm9.165 13.326.928-.372zm2.583 15.966-.998-.06-.002.03v.03zm0 10.652v1h1v-1zm-118.305 19.58.649.762.01-.009zm-16.68 22.209.912.411zm-5.563 27.212.999.03.001-.025v-.024zm4.992 27.019-.923.385zm15.685 22.559.687-.726-.005-.005zm54.825 19.58.023-.999-.012-.001h-.011zm40.531-9.437-.436-.9-.013.006-.013.007zm24.632-21.93v-1h-.548l-.295.462zm1.998 0 .988-.15-.128-.85h-.86zm4.151 27.412-.989.15.129.85h.86zm41.902 0v1h1v-1zm-51.576-66.774.923.384zm3.408-19.262h-1v.022l.001.022zm-14.685 35.245.664.747.007-.007zm-39.866 13.001v1h.002zm-28.117-8.341.649-.761-.009-.007-.009-.008zm-7.344-9.462-.908.42zm-2.447-11.724 1 .021v-.013zm37.908-29.293v-1h-.001zm54.551 0h1v-1h-1zm-247.872-13.714a102 102 0 0 0 21.752-8.542l-.94-1.766a100 100 0 0 1-21.325 8.375zm78.18 109.718-77.616-111.256-1.64 1.144 77.616 111.256zm-59.561 1.572h58.741v-2h-58.741zM92.122 185.546l75.58 108.985 1.644-1.14-75.58-108.985zm-38.965.43h39.787v-2H53.157zm1 108.024V184.976h-2V294zM.72 295h52.437v-2H.72zM-.28.294V294h2V.294zm122.673-1H.72v2h121.673zm70.392 25.414C174.711 7.664 151.214-.785 122.39-.706l.005 2c28.403-.078 51.378 8.234 69.018 24.869zm27.1 67.927c0-28.194-9.014-50.872-27.1-67.927l-1.372 1.455c17.628 16.623 26.472 38.745 26.472 66.472zm-6.999 38.896a103.5 103.5 0 0 0 6.999-38.91l-2 .028a101.5 101.5 0 0 1-6.864 38.159zm-18.778 27.786a73.04 73.04 0 0 0 18.78-27.793l-1.87-.709a71.06 71.06 0 0 1-18.265 27.032zm-22.441 15.807a121.8 121.8 0 0 0 22.428-15.795l-1.329-1.495a119.7 119.7 0 0 1-22.059 15.535zm-117.51-36.592V46.504h-2v92.028zm64.398-1H53.156v2h65.399zm34.079-11.777a48.19 48.19 0 0 1-34.029 11.778l-.1 1.997a50.19 50.19 0 0 0 35.442-12.266zm12.736-33.237c0 14.318-4.276 25.383-12.76 33.258l1.361 1.466c8.982-8.337 13.399-19.985 13.399-34.724zM152.68 59.33c8.379 7.96 12.69 18.876 12.69 33.188h2c0-14.746-4.46-26.23-13.312-34.638zm-34.556-11.826c14.703 0 26.177 3.865 34.556 11.826l1.378-1.45c-8.852-8.41-20.875-12.376-35.934-12.376zm-64.967 0h64.967v-2H53.157zM1420.31 278.03c11.28 10.999 27.03 16.418 46.99 16.418v-2c-19.6 0-34.79-5.312-45.59-15.85zm-16.87-45.399c0 19.156 5.59 34.399 16.87 45.399l1.4-1.432c-10.81-10.539-16.27-25.215-16.27-43.967zm0-117.482v117.482h2V115.15zm-34.48 1h35.48v-2h-35.48zm-1-44.978v43.978h2V71.172zm36.68-1h-35.68v2h35.68zm5.35-57.848-6.34 58.741 1.98.215 6.35-58.741zm42.78-.893h-41.79v2h41.79zm1 59.742V12.43h-2v58.742zm53.51-1h-54.51v2h54.51zm1 45.055V71.173h-2v44.055zm-55.51 1h54.51v-2h-54.51zm1 110.06v-111.06h-2v111.06zm5.99 15.646a22.18 22.18 0 0 1-5.99-15.625l-2-.041a24.21 24.21 0 0 0 6.53 17.034zm7.23 4.979a20.7 20.7 0 0 1-7.23-4.979l-1.46 1.368a22.65 22.65 0 0 0 7.93 5.462zm8.65 1.52c-2.96.12-5.91-.399-8.65-1.52l-.76 1.851a22.6 22.6 0 0 0 9.49 1.667zm31.64-.001h-31.6v2h31.6zm1 45.017v-44.017h-2v44.017zm-40.98 1h39.98v-2h-39.98zm-277.66-14.938c16.28 12.758 37.73 19.089 64.26 19.089v-2c-26.21 0-47.19-6.253-63.02-18.663zm-31.18-50.718a85.44 85.44 0 0 0 31.18 50.719l1.24-1.575a83.4 83.4 0 0 1-30.46-49.533zm53.42-1.194h-52.44v2h52.44zm14.76 18.309a30.73 30.73 0 0 1-13.81-17.597l-1.91.576a32.7 32.7 0 0 0 14.7 18.744zm27.22 6.715a50.6 50.6 0 0 1-27.23-6.72l-1 1.733a52.6 52.6 0 0 0 28.31 6.986zm41.06-21.949c0 7.169-3.3 12.582-10.01 16.266-6.79 3.728-17.1 5.682-31.01 5.682v2c14.04 0 24.74-1.961 31.97-5.929 7.31-4.011 11.05-10.072 11.05-18.019zm-12.61-16.358c4.29 1.937 7.44 4.279 9.51 6.989 2.06 2.696 3.1 5.806 3.1 9.369h2c0-3.982-1.17-7.523-3.51-10.583-2.33-3.047-5.78-5.568-10.28-7.598zm-31.64-9.444a147 147 0 0 1 31.66 9.452l.78-1.84a148.7 148.7 0 0 0-32.09-9.58zm-37.75-9.229a380 380 0 0 0 37.73 9.227l.38-1.964a378 378 0 0 1-37.54-9.179zm-32.64-21.748a66.33 66.33 0 0 0 32.64 21.749l.57-1.918a64.33 64.33 0 0 1-31.66-21.093zm-13.38-41.789c0 17.174 4.47 31.125 13.39 41.799l1.53-1.282c-8.55-10.237-12.92-23.699-12.92-40.517zm5.74-26.302a59 59 0 0 0-5.74 26.317l2-.03a57.16 57.16 0 0 1 5.54-25.427zm16.81-21.045a59.1 59.1 0 0 0-16.81 21.045l1.8.86a57.2 57.2 0 0 1 16.24-20.334zm62.29-18.738c-26.44-.026-47.25 6.184-62.32 18.755l1.28 1.536c14.6-12.178 34.9-18.317 61.04-18.29zM1315 83.803c-15.89-11.874-36.84-17.782-63.26-17.782v2c26.13 0 46.62 5.841 62.06 17.384zm30.1 48.109a79.8 79.8 0 0 0-30.1-48.105l-1.2 1.594a77.87 77.87 0 0 1 29.34 46.9zm-53.49 1.194h52.51v-2h-52.51zm-39.75-20.99c10.35 0 18.72 1.734 25.15 5.132 6.42 3.387 10.96 8.452 13.67 15.229l1.86-.741c-2.88-7.216-7.76-12.647-14.59-16.256-6.82-3.599-15.53-5.364-26.09-5.364zm-32.6 20.069c0-6.713 2.64-11.647 7.92-14.959 5.36-3.363 13.53-5.11 24.68-5.11v-2c-11.29 0-19.92 1.758-25.75 5.415-5.91 3.707-8.85 9.308-8.85 16.654zm2.44 8.603a17 17 0 0 1-2.44-8.613l-2 .02c.03 3.394.97 6.717 2.73 9.625zm6.47 6.182a17.03 17.03 0 0 1-6.47-6.182l-1.71 1.032a19 19 0 0 0 7.23 6.908zm23.17 8.309a61.1 61.1 0 0 1-23.12-8.284l-1.04 1.709a63.2 63.2 0 0 0 23.87 8.555zm31 7.158a268 268 0 0 0-30.98-7.154l-.33 1.972a266 266 0 0 1 30.74 7.1zm30.93 11.085a250 250 0 0 0-30.94-11.088l-.55 1.923a247.5 247.5 0 0 1 30.69 10.999zm24.22 21.059a56.13 56.13 0 0 0-24.2-21.052l-.83 1.821a54.1 54.1 0 0 1 23.34 20.301zm9.67 36.167a64.15 64.15 0 0 0-9.67-36.161l-1.7 1.058a62.1 62.1 0 0 1 9.37 35.033zm-6 27.409a59.74 59.74 0 0 0 6-27.466l-2 .045a57.66 57.66 0 0 1-5.8 26.546zm-17.9 21.681a59.75 59.75 0 0 0 17.9-21.681l-1.8-.875a57.8 57.8 0 0 1-17.3 20.955zM1253.9 298.6c30.32-.026 53.5-6.234 69.38-18.778l-1.24-1.569c-15.39 12.154-38.05 18.321-68.14 18.347zM1098.2 88.48c-16.37-14.743-39.32-22.07-68.54-22.07v2c28.9 0 51.3 7.243 67.2 21.557zm24.57 60.817c.03-25.686-8.14-46-24.57-60.816l-1.34 1.485c15.94 14.372 23.94 34.106 23.91 59.329zm0 144.894V149.296h-2v144.895zm-42.98 1h41.98v-2h-41.98zm-4.91-28.271 3.92 27.412 1.98-.283-3.92-27.412zm-1.04.858h2.03v-2h-2.03zm-24.16 21.829a61.73 61.73 0 0 0 25-22.291l-1.69-1.075a59.74 59.74 0 0 1-24.18 21.568zm-41.03 9.539a84.74 84.74 0 0 0 41.06-9.551l-.93-1.774a82.66 82.66 0 0 1-40.08 9.325zm-55.489-19.854c14.006 13.263 32.545 19.854 55.509 19.854v-2c-22.56 0-40.571-6.463-54.134-19.306zm-15.962-22.991a66.2 66.2 0 0 0 15.967 22.996l1.365-1.462a64.2 64.2 0 0 1-15.485-22.302zm-5.027-27.541a66.2 66.2 0 0 0 5.027 27.541l1.847-.768a64.2 64.2 0 0 1-4.875-26.708zm5.644-27.579a64.4 64.4 0 0 0-5.644 27.631l1.999-.039a62.4 62.4 0 0 1 5.47-26.772zm16.91-22.57a64.4 64.4 0 0 0-16.91 22.57l1.825.82a62.4 62.4 0 0 1 16.384-21.869zm62.214-19.82c-26.403 0-47.187 6.569-62.226 19.83l1.323 1.501c14.567-12.846 34.824-19.331 60.903-19.331zm56.51 0h-56.51v2h56.51zm-1-9.652v10.652h2v-10.652zm-2.53-15.587a36.15 36.15 0 0 1 2.53 15.529l1.99.117c.33-5.593-.58-11.19-2.67-16.391zm-8.9-12.973a36.2 36.2 0 0 1 8.9 12.973l1.85-.745a38 38 0 0 0-9.39-13.692zm-31.5-10.189a46.02 46.02 0 0 1 31.55 10.233l1.26-1.552a48 48 0 0 0-32.92-10.678zm-25.73 7.232a42.7 42.7 0 0 1 25.64-7.232l.08-1.998a44.72 44.72 0 0 0-26.84 7.571zm-13.321 17.316a34.47 34.47 0 0 1 13.321-17.316l-1.12-1.659a36.48 36.48 0 0 0-14.091 18.321zm-50.523.673h49.578v-2h-49.578zM970.66 85.38a88.76 88.76 0 0 0-31.685 48.994l1.943.474a86.76 86.76 0 0 1 30.972-47.89zm59-18.97c-23.42 0-43.114 6.309-59.008 18.977l1.246 1.564c15.486-12.343 34.722-18.54 57.762-18.54zm43.02 141.593a43.9 43.9 0 0 1-3.33 18.833l1.85.769a45.96 45.96 0 0 0 3.48-19.691zm0-10.618v10.574h2v-10.574zm-53.51 1h54.51v-2h-54.51zm-36.909 28.293c0-9.554 3.11-16.551 9.15-21.196 6.089-4.683 15.309-7.097 27.759-7.097v-2c-12.65 0-22.389 2.443-28.978 7.511-6.639 5.106-9.931 12.755-9.931 22.782zm2.342 11.31a25.5 25.5 0 0 1-2.342-11.287l-2-.047a27.46 27.46 0 0 0 2.527 12.173zm7.078 9.099a25.5 25.5 0 0 1-7.078-9.099l-1.815.839a27.46 27.46 0 0 0 7.633 9.813zm27.489 8.118c-12.12 0-21.252-2.789-27.469-8.102l-1.3 1.521c6.707 5.731 16.369 8.581 28.769 8.581zm39.16-12.749c-9.48 8.436-22.49 12.723-39.16 12.749v2c17.01-.026 30.55-4.407 40.49-13.254zm11.02-15.62a43.9 43.9 0 0 1-11.03 15.627l1.35 1.481a46 46 0 0 0 11.53-16.339zm-339.085 41.29c19.274 20.648 44.983 30.942 77.016 30.942v-2c-31.563 0-56.712-10.122-75.554-30.306zM701.409 182.7c0 36.285 9.645 64.789 28.855 85.425l1.464-1.362c-18.776-20.17-28.319-48.135-28.319-84.063zm28.736-85.345c-19.17 20.675-28.736 49.061-28.736 85.345h2c0-35.928 9.465-63.777 28.203-83.985zm77.136-30.944c-32.187 0-57.964 10.266-77.136 30.944l1.467 1.36c18.735-20.207 43.946-30.304 75.669-30.304zm65.167 21.018c-17.283-14.033-39.03-21.018-65.167-21.018v2c25.764 0 47.042 6.877 63.907 20.57zm34.33 53.082a99.33 99.33 0 0 0-34.337-53.088l-1.246 1.564a97.34 97.34 0 0 1 33.646 52.02zm-49.058 1.248h48.089v-2H857.72zm-21.423-22.183a52.96 52.96 0 0 1 20.533 21.639l1.78-.912a54.97 54.97 0 0 0-21.309-22.457zm-28.971-7.11a52.96 52.96 0 0 1 28.971 7.11l1.004-1.73a54.96 54.96 0 0 0-30.065-7.378zm-22.388 4.398a49.9 49.9 0 0 1 22.308-4.398l.07-1.999a51.9 51.9 0 0 0-23.202 4.575zm-18.042 13.838a49.9 49.9 0 0 1 18.042-13.838l-.824-1.822a51.9 51.9 0 0 0-18.764 14.392zM751.459 182.7c0-22.491 5.188-39.776 15.43-51.989l-1.532-1.285c-10.644 12.692-15.898 30.496-15.898 53.274zm15.431 52.03c-10.243-12.241-15.431-29.539-15.431-52.03h-2c0 22.779 5.254 40.595 15.897 53.313zm18.039 13.889a49.9 49.9 0 0 1-18.031-13.88l-1.549 1.265a51.9 51.9 0 0 0 18.753 14.436zm22.318 4.433a49.9 49.9 0 0 1-22.318-4.433l-.827 1.821a51.9 51.9 0 0 0 23.213 4.61zm29.053-7.162a53.1 53.1 0 0 1-28.976 7.162l-.086 1.998a55.1 55.1 0 0 0 30.068-7.431zm20.53-21.666a53.07 53.07 0 0 1-20.53 21.666l1.006 1.729a55.1 55.1 0 0 0 21.304-22.483zm48.979-.544H857.72v2h48.089zm-33.367 54.414a99.53 99.53 0 0 0 34.336-53.166l-1.937-.495a97.54 97.54 0 0 1-33.647 52.098zm-65.161 20.974c26.188 0 47.936-6.972 65.168-20.98l-1.262-1.551c-16.812 13.666-38.089 20.531-63.906 20.531zM524.526 378.29l33.561-83.961-1.857-.742-33.561 83.96zm49.393-1.371h-50.322v2h50.322zM694.741 71.312 572.99 377.55l1.858.739L696.599 72.051zm-51.508 1.37h52.437v-2h-52.437zM583.232 229.35l60.934-157.308-1.865-.723-60.934 157.309zm-2.93.639h1.997v-2h-1.997zM518.514 72.042l60.856 157.309 1.865-.722-60.856-157.308zm-51.504.64h52.436v-2H467.01zm91.075 220.9L467.937 71.306l-1.854.751 90.149 222.277zM353.799 68.411c28.948 0 51.314 7.228 67.236 21.556l1.338-1.487c-16.399-14.756-39.302-22.07-68.574-22.07zm-57.766 18.54c15.513-12.343 34.746-18.54 57.766-18.54v-2c-23.398 0-43.091 6.308-59.011 18.975zm-30.743 47.893a86.36 86.36 0 0 1 30.737-47.888l-1.233-1.574a88.36 88.36 0 0 0-31.449 48.996zm48.565-1.233h-49.538v2h49.538zm13.148-17.648a36.5 36.5 0 0 0-14.093 18.321l1.89.654a34.5 34.5 0 0 1 13.32-17.316zm26.837-7.571a44.9 44.9 0 0 0-26.835 7.57l1.114 1.661a42.9 42.9 0 0 1 25.64-7.233zm32.854 10.708c-8.066-7.178-19.098-10.709-32.895-10.709v2c13.459 0 23.966 3.44 31.565 10.203zm9.428 13.701a37.9 37.9 0 0 0-9.414-13.687l-1.359 1.467a35.9 35.9 0 0 1 8.916 12.965zm2.653 16.399a37.9 37.9 0 0 0-2.653-16.399l-1.857.745a35.9 35.9 0 0 1 2.514 15.533zm.002 10.591v-10.652h-2v10.652zm-57.783 1h56.783v-2h-56.783zm-60.863 19.333c14.674-12.849 34.92-19.333 60.863-19.333v-2c-26.271 0-47.04 6.57-62.181 19.828zm-16.427 21.867a62.3 62.3 0 0 1 16.417-21.858l-1.297-1.523a64.3 64.3 0 0 0-16.943 22.56zm-5.475 26.782a62.3 62.3 0 0 1 5.475-26.782l-1.823-.821a64.3 64.3 0 0 0-5.652 27.642zm4.915 26.653a64.2 64.2 0 0 1-4.916-26.604l-1.999-.059a66.2 66.2 0 0 0 5.069 27.433zm15.444 22.213a64.2 64.2 0 0 1-15.444-22.213l-1.846.77a66.2 66.2 0 0 0 15.926 22.905zm54.143 19.311c-22.564 0-40.575-6.462-54.138-19.306l-1.375 1.452c14.006 13.263 32.546 19.854 55.513 19.854zm40.069-9.324a82.5 82.5 0 0 1-40.046 9.325l-.046 1.999a84.5 84.5 0 0 0 41.016-9.551zm24.251-21.581a59.6 59.6 0 0 1-24.225 21.568l.873 1.799a61.6 61.6 0 0 0 25.038-22.292zm2.841-.462h-1.998v2h1.998zm5.139 28.262-4.151-27.412-1.977.299 4.151 27.413zm40.914-.85h-41.902v2h41.902zm-1-143.895v144.895h2V149.1zm-23.911-59.134c15.915 14.372 23.911 34.042 23.911 59.134h2c0-25.556-8.166-45.804-24.571-60.619zm-25.742 137.639a45.9 45.9 0 0 0 3.484-19.691l-1.998.089a43.9 43.9 0 0 1-3.332 18.833zm-11.529 16.339a45.86 45.86 0 0 0 11.529-16.339l-1.846-.769a43.9 43.9 0 0 1-11.026 15.627zm-40.535 13.261c17.035-.026 30.585-4.407 40.528-13.254l-1.329-1.495c-9.48 8.436-22.507 12.723-39.203 12.749zm-28.769-8.581c6.706 5.731 16.411 8.581 28.767 8.581v-2c-12.08 0-21.251-2.789-27.468-8.102zm-7.602-9.802a27.6 27.6 0 0 0 7.62 9.817l1.263-1.551a25.6 25.6 0 0 1-7.067-9.105zm-2.538-12.166a27.6 27.6 0 0 0 2.538 12.166l1.816-.839a25.6 25.6 0 0 1-2.355-11.284zm38.906-30.271c-12.66.014-22.356 2.477-28.924 7.552-6.614 5.111-9.902 12.75-9.983 22.733l2 .016c.077-9.52 3.185-16.514 9.206-21.167 6.068-4.689 15.248-7.121 27.703-7.134zm54.552 0h-54.551v2h54.551zm1 11.574v-10.574h-2v10.574z" mask="url(#raycast-big_svg__c)"></path><defs><radialGradient id="raycast-big_svg__b" cx="0" cy="0" r="1" gradientTransform="matrix(0 318.224 -1458.37 0 672.215 78.128)" gradientUnits="userSpaceOnUse"><stop stop-color="#fff" style="stop-color:white;stop-opacity:1"></stop><stop offset="0.666" stop-color="#fff" stop-opacity="0.1" style="stop-color:white;stop-opacity:0.1"></stop><stop offset="0.99" stop-color="#fff" stop-opacity="0.1" style="stop-color:white;stop-opacity:0.1"></stop></radialGradient><filter id="raycast-big_svg__a" width="1506.56" height="377.625" x="0.72" y="0.294" color-interpolation-filters="sRGB" filterUnits="userSpaceOnUse"><feFlood flood-opacity="0" result="BackgroundImageFix"></feFlood><feBlend in="SourceGraphic" in2="BackgroundImageFix" result="shape"></feBlend><feColorMatrix in="SourceAlpha" result="hardAlpha" values="0 0 0 0 0 0 0 0 0 0 0 0 0 0 0 0 0 0 127 0"></feColorMatrix><feOffset dy="0.917"></feOffset><feComposite in2="hardAlpha" k2="-1" k3="1" operator="arithmetic"></feComposite><feColorMatrix values="0 0 0 0 1 0 0 0 0 1 0 0 0 0 1 0 0 0 0.05 0"></feColorMatrix><feBlend in2="shape" result="effect1_innerShadow_2774_29167"></feBlend></filter></defs></svg>