<svg xmlns="http://www.w3.org/2000/svg" width="17" height="25" fill="none" style="margin-top:15.5px"><path fill="#D8D8D8" d="M4.186 11.689q0 1.335.533 2.35a3.94 3.94 0 0 0 1.477 1.583q.944.57 2.18.569 1.235 0 2.173-.569a4 4 0 0 0 1.476-1.583q.54-1.015.54-2.35V4.787q0-1.335-.54-2.35A4 4 0 0 0 10.55.853Q9.61.286 8.376.285q-1.235 0-2.18.568a3.94 3.94 0 0 0-1.477 1.584q-.533 1.015-.533 2.35zm-3.962.383q0 2.23.91 3.955a7.27 7.27 0 0 0 2.527 2.77q1.62 1.043 3.749 1.256v2.315H3.405a.94.94 0 0 0-.681.277.9.9 0 0 0-.284.675q0 .412.284.688.284.277.681.277h9.941q.398 0 .675-.277a.94.94 0 0 0 .277-.688.92.92 0 0 0-.277-.675.92.92 0 0 0-.675-.277H9.327v-2.315q2.13-.212 3.756-1.257a7.25 7.25 0 0 0 2.535-2.769q.91-1.726.91-3.955v-2.3a.92.92 0 0 0-.285-.69.94.94 0 0 0-.681-.276.92.92 0 0 0-.675.277.94.94 0 0 0-.277.689v2.215q0 1.904-.774 3.33a5.5 5.5 0 0 1-2.173 2.215q-1.398.789-3.287.789t-3.288-.789a5.5 5.5 0 0 1-2.173-2.215q-.774-1.427-.774-3.33V9.772a.94.94 0 0 0-.277-.69.94.94 0 0 0-.688-.276.92.92 0 0 0-.675.277.94.94 0 0 0-.277.689zm5.88-.383V4.787q0-1.221.624-1.917.625-.696 1.648-.696 1.008 0 1.64.696t.632 1.917v6.902q0 1.221-.632 1.917t-1.64.696q-1.023 0-1.648-.696t-.625-1.917" style="fill:color(display-p3 .8458 .8458 .8458);fill-opacity:1"></path></svg>