<svg xmlns="http://www.w3.org/2000/svg" width="21" height="21" fill="none" style="margin-top:15.5px"><path fill="#D8D8D8" d="M10.197 15.057a4.54 4.54 0 0 0 2.38-.649 5 5 0 0 0 1.73-1.731q.65-1.082.65-2.392t-.65-2.392a5 5 0 0 0-1.73-1.73 4.54 4.54 0 0 0-2.38-.65 4.56 4.56 0 0 0-2.392.65 5 5 0 0 0-1.731 1.73 4.56 4.56 0 0 0-.65 2.392q0 1.31.65 2.392a5 5 0 0 0 1.73 1.731q1.083.65 2.393.65m0-1.59a3.04 3.04 0 0 1-1.597-.433 3.3 3.3 0 0 1-1.152-1.158 3.05 3.05 0 0 1-.433-1.59q0-.867.433-1.591A3.3 3.3 0 0 1 8.6 7.537a3.04 3.04 0 0 1 1.597-.433q.866 0 1.584.433.72.432 1.152 1.158.433.725.433 1.59t-.433 1.59a3.3 3.3 0 0 1-1.152 1.159 3 3 0 0 1-1.584.432m4.432-8.901a.87.87 0 0 0-.257.637q0 .38.257.65.27.257.65.263a.87.87 0 0 0 .649-.264L17.26 4.52a.91.91 0 0 0 .257-.655.87.87 0 0 0-.257-.643.9.9 0 0 0-.65-.257.87.87 0 0 0-.637.257zm1.287 10.164a.87.87 0 0 0-.638-.258.9.9 0 0 0-.649.258.9.9 0 0 0-.257.649q0 .38.257.637l1.345 1.345a.85.85 0 0 0 .638.252.93.93 0 0 0 .649-.264.87.87 0 0 0 .257-.637.9.9 0 0 0-.257-.65zm-4.807 2.76a.88.88 0 0 0-.27-.638.87.87 0 0 0-.642-.274.87.87 0 0 0-.644.274.88.88 0 0 0-.269.638v1.883q0 .363.27.637.268.275.643.275t.643-.275a.88.88 0 0 0 .269-.637zm0-16.293a.88.88 0 0 0-.27-.637.87.87 0 0 0-.642-.275.87.87 0 0 0-.644.275.88.88 0 0 0-.269.637V3.08q0 .363.27.638.268.275.643.275t.643-.275a.88.88 0 0 0 .269-.638zm8.14 10q.363 0 .638-.269a.87.87 0 0 0 .274-.643.87.87 0 0 0-.274-.643.88.88 0 0 0-.638-.27h-1.871q-.375 0-.643.27a.88.88 0 0 0-.27.643q0 .375.27.643.268.27.643.27zM4.466 5.852a.87.87 0 0 0 .637.258.87.87 0 0 0 .637-.258.85.85 0 0 0 .27-.643.87.87 0 0 0-.258-.643L4.42 3.22a.83.83 0 0 0-.632-.257.87.87 0 0 0-.643.257.85.85 0 0 0-.269.643q0 .386.257.643zm-3.322 3.52q-.375 0-.643.27a.88.88 0 0 0-.27.643q0 .375.27.643.268.27.643.27h1.86q.375 0 .643-.27a.88.88 0 0 0 .269-.643q0-.375-.27-.643a.88.88 0 0 0-.642-.27zm1.988 6.68a.89.89 0 0 0-.269.648q0 .38.258.638.257.257.643.263a.85.85 0 0 0 .643-.252l1.333-1.333a.85.85 0 0 0 .27-.637.9.9 0 0 0-.258-.65.87.87 0 0 0-.643-.257.87.87 0 0 0-.643.258z" style="fill:color(display-p3 .8458 .8458 .8458);fill-opacity:1"></path></svg>