<svg xmlns="http://www.w3.org/2000/svg" width="21" height="24" viewBox="0 0 21 24" fill="none"><path d="M14.3122 23.2C15.0673 23.1636 15.7965 22.8696 16.458 22.2407C17.9585 20.8974 18.8321 19.1065 19.478 17.4068L19.7394 16.719L19.0567 16.4445C16.3929 15.3734 15.7507 11.5878 18.6292 9.86248L19.3172 9.45016L18.8597 8.79138C17.8768 7.37604 16.3871 6.61971 14.5258 6.47179L14.5258 6.47176L14.5198 6.47134C14.2613 6.45287 14.0094 6.459 13.765 6.48269C14.735 5.50955 15.4783 4.07172 15.2894 2.39181L15.2078 1.66535L14.4795 1.72838C11.8378 1.95698 9.50254 4.26235 9.63465 7.13889C9.60847 7.1292 9.5817 7.11928 9.5543 7.10913C9.46926 7.07762 9.3782 7.04388 9.28019 7.00804C8.70334 6.7971 7.98198 6.55971 7.11725 6.51488L7.07891 6.51289L7.04056 6.51483C5.3178 6.6019 3.92522 7.27051 2.92833 8.35253C1.94075 9.42445 1.38321 10.8553 1.22458 12.4136C0.908139 15.5223 2.15924 19.2601 5.00698 22.1954L5.02201 22.2109L5.0379 22.2255C5.57429 22.7182 6.16002 23.0952 6.90036 23.1979C7.62427 23.2983 8.38238 23.1203 9.23753 22.7525C10.3235 22.3002 11.2234 22.3195 12.2487 22.7513C12.8694 23.022 13.5736 23.2356 14.3122 23.2Z" stroke="currentColor" stroke-width="1.5"></path></svg>