<svg xmlns="http://www.w3.org/2000/svg" width="24" height="21" fill="none"><path fill="#D8D8D8" d="M8.632 20.41h6.357q1.215 0 1.835-.662.621-.662.621-1.794v-4.611h4.175q.723 0 1.22-.41.5-.409.499-1.077 0-.423-.191-.744a3.6 3.6 0 0 0-.505-.648l-9.454-9.413a2.5 2.5 0 0 0-.635-.464 1.61 1.61 0 0 0-1.473 0 2.7 2.7 0 0 0-.648.464l-9.44 9.413a3.3 3.3 0 0 0-.526.655q-.184.315-.184.737 0 .668.504 1.078.506.409 1.215.409h4.174v4.611q0 1.133.621 1.794.621.662 1.835.662m.205-1.897a.6.6 0 0 1-.444-.17.6.6 0 0 1-.17-.444v-6.03q0-.368-.382-.368H2.998q-.082 0-.082-.068 0-.041.04-.096l8.718-8.635a.19.19 0 0 1 .137-.055q.082 0 .136.055l8.718 8.635q.054.056.054.096 0 .068-.082.068h-4.856q-.382 0-.382.368v6.03q0 .26-.178.437a.6.6 0 0 1-.436.177z" style="fill:color(display-p3 .8458 .8458 .8458);fill-opacity:1"></path></svg>