<svg xmlns="http://www.w3.org/2000/svg" width="32" height="21" fill="none" style="margin-top:15.5px"><path fill="#D8D8D8" d="M21.67 18.986h6.855q2.723 0 2.723-2.681V4.473q0-2.68-2.723-2.681H21.67q-2.71 0-2.71 2.681v11.832q0 2.68 2.71 2.68M2.968 9.89h9.744q2.723 0 2.723-2.681V2.967q0-2.682-2.723-2.682H2.969Q.246.285.246 2.967V7.21q0 2.68 2.723 2.681m18.853 7.243q-1.01 0-1.01-1.037V4.68q0-1.022 1.01-1.022h6.551q1.01 0 1.009 1.022v11.417q0 1.037-1.009 1.037zM5.733 20.285h8.307q2.723 0 2.723-2.681v-2.792q0-2.682-2.723-2.682H5.733q-2.723 0-2.723 2.682v2.792q0 2.68 2.723 2.681M3.107 8.04q-.996 0-.995-1.037V3.174q0-1.023.995-1.023h9.44q1.023 0 1.023 1.023v3.828q0 1.037-1.023 1.037zM5.87 18.433q-.995 0-.995-1.037V15.02q0-1.037.995-1.037h8.017q1.008 0 1.009 1.037v2.377q0 1.037-1.01 1.037z" style="fill:color(display-p3 .8458 .8458 .8458);fill-opacity:1"></path></svg>