<svg xmlns="http://www.w3.org/2000/svg" width="21" height="21" fill="none" style="margin-top:15.5px"><path fill="#D8D8D8" d="M10.147 15.405q1.396 0 2.56-.698a5.35 5.35 0 0 0 1.862-1.862 4.9 4.9 0 0 0 .698-2.56q0-1.396-.698-2.56a5.35 5.35 0 0 0-1.862-1.861 4.9 4.9 0 0 0-2.56-.698q-1.396 0-2.56.698a5.35 5.35 0 0 0-1.861 1.861 4.9 4.9 0 0 0-.698 2.56q0 1.396.698 2.56a5.35 5.35 0 0 0 1.862 1.861 4.9 4.9 0 0 0 2.56.699m0-1.698q-.93 0-1.71-.466a3.54 3.54 0 0 1-1.246-1.245 3.3 3.3 0 0 1-.465-1.71q0-.932.465-1.705.465-.774 1.246-1.246a3.24 3.24 0 0 1 1.71-.471q.93 0 1.711.465.78.466 1.245 1.245t.466 1.711q0 .93-.466 1.71-.465.78-1.245 1.246t-1.71.466m6.202-8.39q.515 0 .874-.365.358-.365.358-.868 0-.516-.358-.874a1.2 1.2 0 0 0-.874-.359q-.504 0-.868.359a1.18 1.18 0 0 0-.365.874q0 .503.365.868.364.365.868.365m0 12.402q.515 0 .874-.358a1.2 1.2 0 0 0 .358-.875q0-.502-.358-.868a1.18 1.18 0 0 0-.874-.364q-.504 0-.868.364a1.19 1.19 0 0 0-.365.868q0 .516.365.875.364.358.868.358M3.946 5.317q.504 0 .868-.365.365-.365.365-.868a1.18 1.18 0 0 0-.365-.874 1.2 1.2 0 0 0-.868-.359q-.516 0-.874.359a1.2 1.2 0 0 0-.359.874q0 .503.359.868.358.365.874.365m0 12.402q.504 0 .868-.358a1.18 1.18 0 0 0 .365-.875q0-.502-.365-.868a1.19 1.19 0 0 0-.868-.364 1.18 1.18 0 0 0-.874.364 1.2 1.2 0 0 0-.359.868q0 .516.359.875.358.358.874.358m14.969-6.201q.515 0 .874-.365.358-.364.358-.868 0-.503-.358-.868a1.18 1.18 0 0 0-.874-.365q-.504 0-.868.365a1.19 1.19 0 0 0-.365.868q0 .504.365.868.364.365.868.365m-8.768 8.767q.504 0 .868-.365.365-.364.365-.868 0-.503-.365-.867a1.19 1.19 0 0 0-.868-.365q-.502 0-.868.364a1.19 1.19 0 0 0-.364.868q0 .504.364.868.366.366.868.365m0-17.534q.504 0 .868-.365.365-.365.365-.868 0-.504-.365-.868a1.19 1.19 0 0 0-.868-.365q-.502 0-.868.365a1.19 1.19 0 0 0-.364.868q0 .503.364.868.366.365.868.365M1.38 11.518q.503 0 .868-.365.365-.364.365-.868 0-.503-.365-.868a1.19 1.19 0 0 0-.868-.365q-.503 0-.868.365a1.19 1.19 0 0 0-.365.868q0 .504.365.868.365.365.868.365" style="fill:color(display-p3 .8458 .8458 .8458);fill-opacity:1"></path></svg>