<svg xmlns="http://www.w3.org/2000/svg" width="24" height="21" fill="none"><path fill="#D8D8D8" d="M7.626 20.802q.495 0 .79-.31t.296-.79q0-.233-.075-.42a1 1 0 0 0-.227-.336l-2.914-2.818-2.722-2.268-.234.578 3.547.178h13.278q2.02 0 2.894-.92.872-.922.872-2.846V4.554q0-2.02-.872-2.886-.873-.866-2.894-.866h-5.677q-.509 0-.818.323a1.1 1.1 0 0 0-.309.79q0 .454.31.777.308.323.817.323h5.677q.839 0 1.19.357.35.358.35 1.182v6.296q0 .838-.35 1.196-.351.357-1.19.357H6.087l-3.547.165.234.591 2.722-2.268L8.41 8.06q.15-.152.227-.33.075-.18.075-.427 0-.48-.295-.783t-.79-.302a1.1 1.1 0 0 0-.812.343L.547 12.678q-.37.344-.37.825 0 .48.37.838l6.268 6.117q.345.345.811.344" style="fill:color(display-p3 .8458 .8458 .8458);fill-opacity:1"></path></svg>