<svg xmlns="http://www.w3.org/2000/svg" width="21" height="21" fill="none"><path fill="#D8D8D8" d="M7.67 14.533h5.552q1.075 0 1.612-.579.537-.58.537-1.57v-1.421h3.415q.645 0 1.099-.358.454-.359.454-.944 0-.37-.185-.668a2.7 2.7 0 0 0-.532-.597l-7.976-7.021a3.6 3.6 0 0 0-.567-.406 1.27 1.27 0 0 0-.639-.167q-.335 0-.627.167a3.6 3.6 0 0 0-.567.406L1.27 8.408a3 3 0 0 0-.537.603q-.18.28-.18.65 0 .585.454.944.454.358 1.099.358h3.403v1.42q0 .993.543 1.571.543.58 1.618.58m.18-1.612q-.24 0-.395-.15a.51.51 0 0 1-.155-.387V9.685q0-.18-.072-.256-.072-.078-.25-.078H2.953q-.072 0-.072-.06 0-.035.036-.071l7.403-6.412a.2.2 0 0 1 .12-.048q.07 0 .119.048l7.414 6.412q.036.035.036.071 0 .06-.071.06h-4.024q-.18 0-.251.078-.072.077-.072.256v2.699a.534.534 0 0 1-.55.537zm-.622 7.88h6.353q.87 0 1.343-.47.471-.473.471-1.356v-1.41q0-.883-.471-1.354-.472-.472-1.343-.472H7.228q-.883 0-1.355.478-.471.477-.472 1.349v1.409q0 .87.472 1.35.471.477 1.355.477m.251-1.504q-.465 0-.466-.477V17.72q0-.226.12-.358t.346-.131h5.839q.238 0 .358.131.12.132.12.358v1.099q0 .477-.478.477z" style="fill:color(display-p3 .8458 .8458 .8458);fill-opacity:1"></path></svg>