<svg xmlns="http://www.w3.org/2000/svg" width="21" height="21" fill="none"><path fill="#D8D8D8" d="M6.593 8.447v4.626H4.611q-1.065 0-1.942.505a3.84 3.84 0 0 0-1.396 1.37 3.7 3.7 0 0 0-.52 1.941q0 1.066.52 1.942a4 4 0 0 0 1.396 1.403q.876.526 1.942.526t1.942-.526a4 4 0 0 0 1.395-1.403 3.74 3.74 0 0 0 .52-1.942V14.92h4.558v1.97q0 1.065.526 1.941.525.877 1.396 1.403t1.935.526q1.066 0 1.942-.526a4 4 0 0 0 1.396-1.403q.52-.876.52-1.942 0-1.078-.52-1.942a3.84 3.84 0 0 0-3.338-1.874h-1.969V8.447h1.97q1.065 0 1.941-.506a3.84 3.84 0 0 0 1.396-1.369q.52-.862.52-1.942 0-1.065-.52-1.942a4 4 0 0 0-1.396-1.402A3.7 3.7 0 0 0 16.883.76q-1.065 0-1.935.526-.87.525-1.396 1.402a3.7 3.7 0 0 0-.526 1.942V6.6H8.468V4.63a3.74 3.74 0 0 0-.52-1.942 4 4 0 0 0-1.395-1.402A3.7 3.7 0 0 0 4.61.76q-1.065 0-1.942.526-.877.525-1.396 1.402a3.74 3.74 0 0 0-.52 1.942q0 1.08.52 1.942A3.84 3.84 0 0 0 4.61 8.447zM8.468 13.1V8.42h4.558v4.68zM4.61 6.626q-.81 0-1.396-.586a1.92 1.92 0 0 1-.587-1.41q0-.809.587-1.396a1.9 1.9 0 0 1 1.396-.586q.81 0 1.395.586.588.588.587 1.396v1.996zm0 8.254h1.982v1.996q0 .81-.587 1.396a1.9 1.9 0 0 1-1.395.586q-.81 0-1.396-.586a1.9 1.9 0 0 1-.587-1.396q0-.823.587-1.41a1.9 1.9 0 0 1 1.396-.586m12.272-8.254h-1.969V4.63q0-.809.58-1.396t1.39-.586q.808 0 1.395.586.587.588.587 1.396 0 .823-.587 1.41a1.9 1.9 0 0 1-1.396.586m0 8.254q.81 0 1.396.586.587.587.587 1.41 0 .81-.587 1.396a1.9 1.9 0 0 1-1.396.586q-.81 0-1.389-.586a1.92 1.92 0 0 1-.58-1.396V14.88z" style="fill:color(display-p3 .8458 .8458 .8458);fill-opacity:1"></path></svg>