<svg xmlns="http://www.w3.org/2000/svg" width="21" height="21" fill="none" style="margin-top:15.5px"><path fill="#D8D8D8" d="M.332 8.444q0 1.68.635 3.162a8.23 8.23 0 0 0 4.356 4.356 8 8 0 0 0 3.168.628q1.297 0 2.476-.384a8.2 8.2 0 0 0 2.168-1.078l4.773 4.785q.204.193.449.282.243.09.5.09.564 0 .924-.372t.359-.936a1.34 1.34 0 0 0-.36-.924l-4.746-4.76a8.1 8.1 0 0 0 1.18-2.25 8 8 0 0 0 .424-2.599 7.9 7.9 0 0 0-.636-3.168 8.3 8.3 0 0 0-1.75-2.598A8.2 8.2 0 0 0 11.653.92 7.9 7.9 0 0 0 8.49.285 7.9 7.9 0 0 0 5.323.92a8.3 8.3 0 0 0-2.598 1.758A8.3 8.3 0 0 0 .967 5.276a7.9 7.9 0 0 0-.635 3.168m1.976 0A6.11 6.11 0 0 1 4.11 4.07a6.3 6.3 0 0 1 1.976-1.328A6 6 0 0 1 8.49 2.26q1.283 0 2.4.48 1.115.482 1.969 1.329a6.2 6.2 0 0 1 1.334 1.969q.48 1.122.48 2.405t-.48 2.4-1.335 1.968a6.3 6.3 0 0 1-1.969 1.335 6 6 0 0 1-2.399.48q-1.283 0-2.405-.48a6.25 6.25 0 0 1-3.303-3.304 6.1 6.1 0 0 1-.475-2.399" style="fill:color(display-p3 .8458 .8458 .8458);fill-opacity:1"></path></svg>