<svg xmlns="http://www.w3.org/2000/svg" width="26" height="19" fill="none"><path fill="#D8D8D8" d="M13.844 18.194q.48 0 .87-.375l7.755-7.725q.42-.39.42-.9t-.42-.915L14.714.569q-.39-.375-.87-.375-.495 0-.84.33t-.345.825q0 .24.082.465.083.225.248.39l2.085 2.145 5.055 4.56.27-.78-3.69-.15H1.754q-.54 0-.87.337-.33.338-.33.878 0 .525.33.862.33.338.87.338h14.955l3.69-.135-.27-.78-5.055 4.56-2.085 2.13q-.165.165-.248.39t-.082.465q0 .51.345.84t.84.33m10.245 0q.525 0 .87-.33t.345-.84V1.379q0-.525-.345-.855t-.87-.33-.87.33-.345.855v15.645q0 .51.345.84t.87.33" style="fill:color(display-p3 .8458 .8458 .8458);fill-opacity:1"></path></svg>